<svg class="mb-3 currency-icon" width="80" height="80" fill="none" xmlns="http://www.w3.org/2000/svg"><circle cx="40" cy="40" r="40" fill="#fff"/><path d="M40 0C17.908 0 0 17.908 0 40s17.908 40 40 40 40-17.908 40-40S62.092 0 40 0Zm0 72.5C22.078 72.5 7.5 57.92 7.5 40S22.078 7.5 40 7.5 72.5 22.078 72.5 40 57.92 72.5 40 72.5Z" fill="#FFAB2D"/><path d="M42.065 41.298h-5.252V49.1h5.252c1.06 0 2.043-.43 2.733-1.152.722-.691 1.152-1.673 1.152-2.765a3.898 3.898 0 0 0-3.885-3.885Z" fill="#FFAB2D"/><path d="M40 10.833c-16.083 0-29.167 13.084-29.167 29.167 0 16.083 13.084 29.167 29.167 29.167 16.083 0 29.167-13.085 29.167-29.167S56.082 10.833 40 10.833Zm5.935 42.674h-3.44v5.406h-3.608v-5.406h-1.982v5.406H33.28v-5.406h-6.373v-3.394h3.516V29.78h-3.516v-3.393h6.373v-5.299h3.625v5.299h1.982v-5.299h3.608v5.299h3.133a6.4 6.4 0 0 1 6.389 6.388 6.382 6.382 0 0 1-6.082 6.373c3.962 0 7.157 3.225 7.157 7.187 0 3.947-3.194 7.172-7.157 7.172Z" fill="#FFAB2D"/><path d="M44.385 36.507a3.4 3.4 0 0 0 1.013-2.427 3.428 3.428 0 0 0-3.425-3.425h-5.16v6.865h5.16c.937 0 1.797-.4 2.412-1.013Z" fill="#FFAB2D"/></svg>